<?xml version="1.0" standalone="no"?>
<!DOCTYPE svg PUBLIC "-//W3C//DTD SVG 1.1//EN" "http://www.w3.org/Graphics/SVG/1.1/DTD/svg11.dtd" >
<svg xmlns="http://www.w3.org/2000/svg">
<metadata></metadata>
<defs>
<font id="nudin-regularbold" horiz-adv-x="962" >
<font-face units-per-em="2048" ascent="1638" descent="-410" />
<missing-glyph horiz-adv-x="387" />
<glyph horiz-adv-x="0" />
<glyph horiz-adv-x="682" />
<glyph horiz-adv-x="0" />
<glyph horiz-adv-x="0" />
<glyph unicode="&#xd;" horiz-adv-x="512" />
<glyph unicode=" "  horiz-adv-x="387" />
<glyph unicode="&#x09;" horiz-adv-x="387" />
<glyph unicode="&#xa0;" horiz-adv-x="387" />
<glyph unicode="!" horiz-adv-x="524" d="M205 0v172h176v-172h-176zM209 1458h170l-23 -1048h-127z" />
<glyph unicode="&#x22;" horiz-adv-x="743" d="M119 1110v348h162v-348h-162zM463 1110v348h162v-348h-162z" />
<glyph unicode="#" horiz-adv-x="1214" d="M96 465v131h205l47 289h-188v135h207l69 440h154l-72 -440h326l69 440h150l-70 -440h178v-135h-196l-47 -289h182v-131h-203l-73 -465h-152l74 465h-328l-72 -465h-151l74 465h-183zM451 596h325l47 289h-325z" />
<glyph unicode="$" horiz-adv-x="1097" d="M25 180l106 107q80 -80 163 -116.5t189 -41.5v543l-41 4q-78 7 -148.5 38t-117.5 72q-113 101 -113 273q0 174 110.5 284t301.5 125v183h123v-183q117 -6 206 -43.5t175 -113.5l-100 -101q-126 113 -287 123v-530l63 -10q101 -17 160 -40t105 -63q124 -105 124 -289 q0 -177 -121 -286t-325 -123v-225h-123v221q-144 6 -249 51t-201 141zM217 1065q0 -111 66 -168q75 -62 200 -80v516q-126 -10 -196 -81.5t-70 -186.5zM592 129q139 9 218 79.5t79 188.5q0 120 -72 183q-12 11 -26 20t-25 15t-28 11.5t-26 8.5t-29.5 6.5t-28 5t-31.5 4.5 t-31 4v-526z" />
<glyph unicode="%" horiz-adv-x="1583" d="M72 981v215q0 125 77.5 201t198.5 76q120 0 198.5 -76.5t78.5 -200.5v-215q0 -123 -78.5 -198.5t-198.5 -75.5q-121 0 -198.5 75.5t-77.5 198.5zM188 985q0 -176 160 -176t160 176v207q0 85 -39.5 131.5t-120.5 46.5q-160 0 -160 -178v-207zM389 0l684 1458h123 l-684 -1458h-123zM961 262v215q0 125 77.5 201t198.5 76q120 0 198 -76.5t78 -200.5v-215q0 -124 -78 -200t-198 -76q-121 0 -198.5 75.5t-77.5 200.5zM1077 266q0 -178 160 -178q81 0 120.5 46.5t39.5 131.5v207q0 85 -39.5 131.5t-120.5 46.5q-160 0 -160 -178v-207z" />
<glyph unicode="&#x26;" horiz-adv-x="1390" d="M96 412q0 63 19 120t45 97t73 83.5t83 69.5t96 66q-39 46 -57 70t-47 69t-41.5 88t-12.5 90q0 131 91 218t230 87q136 0 227 -88t91 -219q0 -149 -162 -260q-73 -49 -108 -74l372 -448q45 68 63 140t19 194h148q-3 -288 -135 -447l223 -268h-195l-131 160 q-185 -172 -430 -172q-211 0 -336 116t-125 308zM248 416q0 -130 85.5 -210.5t221.5 -80.5q90 0 173 31t171 110l-401 484q-40 -27 -54.5 -37.5t-49 -37t-48.5 -41.5t-37.5 -43t-33.5 -52t-18.5 -56t-8.5 -67zM408 1167q0 -49 27.5 -98t103.5 -141l77 53q64 44 98 84.5 t34 97.5q0 74 -50 124t-123 50q-74 0 -120.5 -48t-46.5 -122z" />
<glyph unicode="'" horiz-adv-x="399" d="M119 1110v348h162v-348h-162z" />
<glyph unicode="(" horiz-adv-x="487" d="M127 195v1069q0 132 43 211q17 32 43 64t42 49t62 63l101 -101l-19 -19l-19 -19t-16.5 -17t-17 -19t-13.5 -17.5t-14 -20.5t-12 -21q-33 -68 -33 -166v-1044q0 -98 33 -166q7 -13 15.5 -26t14 -21t19.5 -23t17.5 -19t22.5 -22.5t22 -21.5l-101 -101q-44 44 -62 62.5 t-42.5 50.5t-42.5 64q-43 79 -43 211z" />
<glyph unicode=")" horiz-adv-x="487" d="M66 -88l22 22t22.5 22t18.5 19.5t19 22.5t15 21.5t15 25.5q29 59 29 162v1044q0 103 -29 162q-8 15 -16 28t-23 29.5l-20 22t-27.5 28l-25.5 25.5l104 105q46 -46 62 -63t42 -49t43 -64q41 -75 41 -211v-1069q0 -136 -41 -211q-18 -32 -42.5 -64t-42.5 -50.5t-62 -62.5z " />
<glyph unicode="*" horiz-adv-x="847" d="M76 967l246 133l-246 135l59 98l238 -145l-8 280h118l-8 -280l240 145l57 -98l-246 -135l246 -133l-57 -101l-240 146l8 -281h-118l8 281l-238 -146z" />
<glyph unicode="+" horiz-adv-x="946" d="M45 479v137h361v357h137v-357h358v-137h-358v-360h-137v360h-361z" />
<glyph unicode="," horiz-adv-x="417" d="M119 180h180v-313l-180 -162v475z" />
<glyph unicode="-" horiz-adv-x="749" d="M94 483v138h561v-138h-561z" />
<glyph unicode="." horiz-adv-x="430" d="M119 0v193h192v-193h-192z" />
<glyph unicode="/" horiz-adv-x="604" d="M-61 -152l583 1762h146l-584 -1762h-145z" />
<glyph unicode="0" horiz-adv-x="987" d="M94 389v680q0 179 113.5 290t286.5 111t286 -111t113 -290v-680q0 -179 -113 -290t-286 -111t-286.5 111t-113.5 290zM242 397q0 -123 66.5 -200.5t185.5 -77.5q118 0 184.5 77t66.5 201v664q0 124 -66.5 201t-184.5 77q-119 0 -185.5 -77.5t-66.5 -200.5v-664z" />
<glyph unicode="1" horiz-adv-x="585" d="M39 1055v168l272 235h148v-1458h-148v1294z" />
<glyph unicode="2" horiz-adv-x="911" d="M43 0v131l575 731q82 107 82 215q0 120 -67.5 191t-186.5 71q-110 0 -181.5 -65.5t-71.5 -198.5h-148q0 174 110 284.5t291 110.5t291.5 -107t110.5 -286q0 -84 -27 -149.5t-90 -145.5l-510 -651h627v-131h-805z" />
<glyph unicode="3" horiz-adv-x="933" d="M12 371h148q8 -128 87 -191t193 -63q122 0 201.5 76t79.5 206q0 136 -70.5 209.5t-216.5 73.5h-31v129h31q131 0 195.5 69t64.5 195t-72 196t-182 70q-114 0 -182.5 -64.5t-79.5 -178.5h-147q12 173 126 274t283 101q179 0 290.5 -109t111.5 -287q0 -234 -197 -323 q223 -83 223 -357q0 -194 -121 -302.5t-307 -108.5q-182 0 -300.5 98t-127.5 287z" />
<glyph unicode="4" horiz-adv-x="946" d="M20 231v134l527 1093h158l-527 -1093h424v413h146v-413h178v-134h-178v-231h-146v231h-582z" />
<glyph unicode="5" horiz-adv-x="946" d="M82 344h147q28 -227 248 -227q113 0 180 67q35 35 54 90t22.5 98t3.5 109q0 59 -5 106t-20.5 95.5t-42 80.5t-71.5 52.5t-106 20.5q-93 0 -156.5 -39t-85.5 -105h-133v766h737v-131h-604v-463q91 101 262 101q159 0 252 -93q72 -72 96.5 -169t24.5 -222q0 -130 -23 -223 t-94 -164q-108 -108 -291 -108q-189 0 -293 104q-90 94 -102 254z" />
<glyph unicode="6" horiz-adv-x="911" d="M59 408q0 139 93 327l358 723h152l-326 -655q70 31 153 31q169 0 274 -116.5t105 -297.5q0 -189 -110 -310.5t-293 -121.5q-185 0 -295.5 115t-110.5 305zM207 414q0 -134 69.5 -214.5t186.5 -80.5t187.5 80.5t70.5 214.5q0 127 -68.5 211t-189.5 84q-117 0 -186.5 -80 t-69.5 -215z" />
<glyph unicode="7" horiz-adv-x="888" d="M37 1098v360h809v-131l-506 -1327h-156l506 1327h-508v-229h-145z" />
<glyph unicode="8" horiz-adv-x="946" d="M43 401q0 230 219 355q-190 109 -190 323q0 170 113.5 280.5t287.5 110.5t287.5 -110.5t113.5 -280.5q0 -215 -188 -323q99 -57 158 -145.5t59 -209.5q0 -182 -123 -297.5t-307 -115.5t-307 115.5t-123 297.5zM190 403q0 -121 81.5 -202.5t201.5 -81.5t201.5 81.5 t81.5 202.5t-81.5 203t-201.5 82t-201.5 -82t-81.5 -203zM219 1077q0 -115 70.5 -187.5t183.5 -72.5t183.5 72.5t70.5 187.5q0 114 -71 188t-183 74t-183 -74t-71 -188z" />
<glyph unicode="9" horiz-adv-x="946" d="M66 1038q0 189 110 310.5t293 121.5q185 0 295 -114.5t110 -304.5q0 -142 -92 -328l-358 -723h-154l328 655q-68 -30 -156 -30q-169 0 -272.5 115.5t-103.5 297.5zM213 1044q0 -127 67.5 -210.5t188.5 -83.5q117 0 187.5 79.5t70.5 214.5q0 134 -70.5 214.5t-187.5 80.5 t-186.5 -80.5t-69.5 -214.5z" />
<glyph unicode=":" horiz-adv-x="485" d="M174 0v193h193v-193h-193zM174 616v193h193v-193h-193z" />
<glyph unicode=";" horiz-adv-x="485" d="M174 616v193h193v-193h-193zM178 180h180v-313l-180 -162v475z" />
<glyph unicode="&#x3c;" horiz-adv-x="1980" d="M51 551l817 817h193l-748 -745h1616v-144h-1616l748 -745h-193z" />
<glyph unicode="=" horiz-adv-x="946" d="M45 309v135h856v-135h-856zM45 655v138h856v-138h-856z" />
<glyph unicode="&#x3e;" horiz-adv-x="1980" d="M51 479v144h1616l-747 745h192l817 -817l-817 -817h-192l747 745h-1616z" />
<glyph unicode="?" horiz-adv-x="894" d="M94 1096q0 158 110 266t275 108q163 0 273 -105t110 -267q0 -67 -23.5 -124t-68.5 -124l-168 -242q-37 -55 -37 -119v-79h-147v82q0 58 14.5 101t48.5 91l166 240q35 51 51.5 88.5t16.5 85.5q0 103 -67 172t-169 69q-105 0 -171 -71.5t-66 -171.5h-148zM403 0v172h177 v-172h-177z" />
<glyph unicode="@" horiz-adv-x="1337" d="M86 328v688q0 212 115 330q111 114 315 114h303q202 0 316 -114q116 -116 116 -330v-1018l-141 2v113q-52 -66 -117 -96.5t-157 -30.5q-86 0 -159 32.5t-120 92.5q-51 63 -70.5 147.5t-19.5 228.5q0 138 19 225.5t65 149.5q44 60 119 93.5t164 33.5q169 0 274 -129v160 q0 82 -18 134.5t-62 98.5q-82 82 -227 82h-266q-142 0 -224 -82q-46 -46 -64 -97t-18 -136v-690q0 -97 23.5 -146.5t93.5 -101.5l-100 -100q-94 69 -127 139.5t-33 206.5zM612 487q0 -63 5 -112.5t20.5 -100.5t42 -84.5t72.5 -55t108 -21.5t108 21.5t72.5 55t42 84.5 t20.5 100.5t5 112.5t-5 112.5t-20.5 101t-42 85t-72.5 55t-108 21.5t-108 -21.5t-72.5 -55t-42 -85t-20.5 -101t-5 -112.5z" />
<glyph unicode="A" horiz-adv-x="1128" d="M-37 0l537 1458h131l534 -1458h-166l-116 330h-637l-117 -330h-166zM293 465h545l-271 770z" />
<glyph unicode="B" horiz-adv-x="1245" d="M150 0v1458h548q193 0 311.5 -104.5t118.5 -284.5q0 -113 -60 -198.5t-155 -120.5q108 -40 173 -130t65 -217q0 -194 -118 -298.5t-316 -104.5h-567zM305 139h397q135 0 214 73t79 196t-79 194.5t-214 71.5h-397v-535zM305 813h381q128 0 207.5 64.5t79.5 189.5 t-79.5 188.5t-207.5 63.5h-381v-506z" />
<glyph unicode="C" horiz-adv-x="1181" d="M94 729q0 85 0.5 124.5t3 102t7.5 93.5t14.5 76t24.5 73t36.5 60t50.5 61q151 151 373 151q198 0 334 -115t172 -319h-160q-30 136 -121 215.5t-225 79.5q-73 0 -139 -26.5t-113 -75.5q-66 -68 -84 -163.5t-18 -336.5t18 -336.5t84 -163.5q47 -49 113 -75.5t139 -26.5 q135 0 227.5 80t122.5 215h156q-35 -203 -172 -318.5t-334 -115.5q-222 0 -373 151q-29 29 -50.5 61t-36.5 60t-24.5 73t-14.5 76t-7.5 93.5t-3 102t-0.5 124.5z" />
<glyph unicode="D" horiz-adv-x="1255" d="M150 0v1458h499q234 0 369 -135q42 -42 70.5 -96t42.5 -100t21 -118t8 -112t1 -120v-32v-32q0 -81 -1 -125t-8 -120t-21 -126.5t-43 -108t-70 -98.5q-135 -135 -369 -135h-499zM305 139h318q182 0 286 107q21 22 37 53t26 58.5t17 74.5t10.5 73t5 83t1.5 77v80 q0 67 -0.5 91.5t-2.5 83.5t-8 89t-16.5 73t-28 74t-41.5 56q-104 107 -286 107h-318v-1180z" />
<glyph unicode="E" horiz-adv-x="1105" d="M150 0v1458h905v-139h-750v-506h639v-139h-639v-535h750v-139h-905z" />
<glyph unicode="F" horiz-adv-x="1064" d="M150 0v1458h905v-139h-750v-506h639v-139h-639v-674h-155z" />
<glyph unicode="G" horiz-adv-x="1208" d="M94 729q0 85 0.5 124.5t3 102t7.5 93.5t14.5 76t24.5 73t36.5 60t50.5 61q151 151 373 151q205 0 341 -120t169 -316h-156q-31 139 -124.5 218t-229.5 79q-72 0 -138.5 -27.5t-113.5 -76.5q-66 -68 -84 -163t-18 -335q0 -241 18 -336.5t84 -163.5q47 -49 113 -75.5 t139 -26.5q81 0 154 32.5t123 92.5q82 100 82 264v160h-359v137h514v-281q0 -127 -29 -216t-96 -160q-154 -168 -389 -168q-222 0 -373 151q-29 29 -50.5 61t-36.5 60t-24.5 73t-14.5 76t-7.5 93.5t-3 102t-0.5 124.5z" />
<glyph unicode="H" horiz-adv-x="1302" d="M150 0v1458h155v-645h692v645h156v-1458h-156v674h-692v-674h-155z" />
<glyph unicode="I" horiz-adv-x="454" d="M150 0v1458h155v-1458h-155z" />
<glyph unicode="J" horiz-adv-x="671" d="M88 -12v139q143 0 221 87.5t78 248.5v995h156v-1016q0 -208 -126.5 -331t-328.5 -123z" />
<glyph unicode="K" horiz-adv-x="1208" d="M150 0v1458h155v-837l680 837h191l-459 -563l524 -895h-184l-445 776l-307 -368v-408h-155z" />
<glyph unicode="L" horiz-adv-x="1050" d="M150 0v1458h155v-1319h746v-139h-901z" />
<glyph unicode="M" horiz-adv-x="1548" d="M150 0v1458h155l475 -1034l463 1034h156v-1458h-156v1108l-399 -879h-133l-406 879v-1108h-155z" />
<glyph unicode="N" horiz-adv-x="1376" d="M150 0v1458h147l774 -1165v1165h156v-1458h-148l-774 1169v-1169h-155z" />
<glyph unicode="O" horiz-adv-x="1208" d="M94 729q0 85 0.5 124.5t3 102t7.5 93.5t14.5 76t24.5 73t36.5 60t50.5 61q151 151 373 151t373 -151q29 -29 50.5 -61t36.5 -60t24.5 -73t14.5 -76t7 -93.5t3 -102t1 -124.5t-0.5 -124.5t-3 -102t-7.5 -93.5t-14.5 -76t-24.5 -73t-36.5 -60t-50.5 -61 q-151 -151 -373 -151t-373 151q-29 29 -50.5 61t-36.5 60t-24.5 73t-14.5 76t-7.5 93.5t-3 102t-0.5 124.5zM250 729q0 -240 18 -335t84 -163q47 -49 113.5 -76.5t138.5 -27.5t138.5 27.5t113.5 76.5q66 68 84 163t18 335t-18 335t-84 163q-47 49 -113.5 76.5t-138.5 27.5 t-138.5 -27.5t-113.5 -76.5q-66 -68 -84 -163t-18 -335z" />
<glyph unicode="P" horiz-adv-x="1167" d="M150 0v1458h542q201 0 326 -116.5t125 -311.5t-125 -312.5t-326 -117.5h-387v-600h-155zM305 739h373q141 0 225 75t84 216t-84 215t-225 74h-373v-580z" />
<glyph unicode="Q" horiz-adv-x="1206" d="M94 729q0 85 0.5 124.5t3 102t7.5 93.5t14.5 76t24.5 73t36.5 60t50.5 61q151 151 373 151t373 -151q29 -29 50.5 -61t36.5 -60t24.5 -73t14.5 -76t7.5 -93.5t3 -102t0.5 -124.5q0 -106 -1 -154.5t-5.5 -119.5t-15 -109.5t-29.5 -82.5t-49 -81l160 -159l-95 -95l-161 162 q-132 -102 -314 -102q-222 0 -373 151q-29 29 -50.5 61t-36.5 60t-24.5 73t-14.5 76t-7.5 93.5t-3 102t-0.5 124.5zM250 729q0 -240 18 -335t84 -163q47 -49 113.5 -76.5t138.5 -27.5q115 0 207 70l-184 184l94 94l178 -178q37 61 48 151.5t11 280.5q0 240 -18 335t-84 163 q-47 49 -113.5 76.5t-138.5 27.5t-138.5 -27.5t-113.5 -76.5q-66 -68 -84 -163t-18 -335z" />
<glyph unicode="R" horiz-adv-x="1220" d="M150 0v1458h559q195 0 313.5 -103t118.5 -288q0 -155 -86 -252t-232 -127l346 -688h-182l-332 674h-350v-674h-155zM305 813h389q134 0 212.5 62t78.5 190t-78.5 191t-212.5 63h-389v-506z" />
<glyph unicode="S" horiz-adv-x="1081" d="M25 180l106 107q89 -89 180 -124.5t217 -35.5q160 0 252 71.5t92 198.5q0 123 -69 183q-35 30 -72.5 43.5t-118.5 25.5l-170 27q-173 27 -268 110q-111 99 -111 273q0 187 126 299t341 112q139 0 240 -37t195 -122l-101 -101q-70 64 -149 94.5t-191 30.5 q-144 0 -225.5 -73.5t-81.5 -196.5q0 -111 66 -168q69 -60 196 -80l160 -24q100 -15 159.5 -38.5t106.5 -64.5q123 -105 123 -289q0 -191 -137.5 -302t-366.5 -111q-164 0 -280 44.5t-219 147.5z" />
<glyph unicode="T" horiz-adv-x="999" d="M0 1319v139h999v-139h-421v-1319h-156v1319h-422z" />
<glyph unicode="U" horiz-adv-x="1275" d="M129 481v977h156v-964q0 -166 96 -266.5t256 -100.5t257 100.5t97 266.5v964h156v-977q0 -217 -144 -355t-366 -138t-365 138t-143 355z" />
<glyph unicode="V" horiz-adv-x="995" d="M-45 1458h164l379 -1179l379 1179h163l-479 -1458h-127z" />
<glyph unicode="W" horiz-adv-x="1626" d="M-29 1458h166l285 -1175l321 1175h140l321 -1175l285 1175h166l-373 -1458h-145l-324 1167l-324 -1167h-145z" />
<glyph unicode="X" horiz-adv-x="1005" d="M-31 0l447 748l-418 710h180l324 -575l323 575h181l-420 -710l450 -748h-180l-354 612l-357 -612h-176z" />
<glyph unicode="Y" horiz-adv-x="929" d="M-45 1458h168l344 -698l340 698h168l-430 -856v-602h-156v602z" />
<glyph unicode="Z" horiz-adv-x="1015" d="M55 0v147l729 1172h-700v139h877v-131l-736 -1188h736v-139h-906z" />
<glyph unicode="[" horiz-adv-x="518" d="M127 -152v1762h362v-131h-215v-1499h215v-132h-362z" />
<glyph unicode="\" horiz-adv-x="604" d="M-61 1604h145l582 -1756h-146z" />
<glyph unicode="]" horiz-adv-x="518" d="M29 -25h221v1508h-221v127h362v-1762h-362v127z" />
<glyph unicode="^" horiz-adv-x="976" d="M86 846l336 624h135l334 -624h-152l-250 467l-251 -467h-152z" />
<glyph unicode="_" horiz-adv-x="976" d="M-61 -233h1099v-105h-1099v105z" />
<glyph unicode="`" horiz-adv-x="901" d="M195 1530h176l180 -313h-135z" />
<glyph unicode="a" horiz-adv-x="983" d="M72 285q0 134 91 212t257 78h303v97q0 112 -61 166.5t-197 54.5q-96 0 -153 -26t-101 -89l-100 92q65 85 146.5 117.5t209.5 32.5q201 0 302 -85.5t101 -250.5v-684h-147v96q-61 -61 -125 -84.5t-166 -23.5q-105 0 -171.5 21.5t-113.5 70.5q-75 75 -75 205zM215 287 q0 -88 56 -130t175 -42q78 0 130.5 12.5t95.5 54.5q51 48 51 174v109h-283q-225 0 -225 -178z" />
<glyph unicode="b" horiz-adv-x="993" d="M123 0v1458h147v-567q58 73 126 101t159 28q75 0 140.5 -24t105.5 -64q123 -123 123 -428t-123 -428q-40 -40 -105.5 -64t-140.5 -24q-90 0 -158.5 29t-126.5 104v-121h-147zM270 504q0 -65 5 -116t21.5 -103.5t43.5 -87t73.5 -56.5t110.5 -22t110.5 22t73 56t42.5 87 t21 103.5t5 116.5t-5 116.5t-21 103.5t-42.5 87t-73 56t-110.5 22t-110.5 -22t-73.5 -56.5t-43.5 -87t-21.5 -103.5t-5 -116z" />
<glyph unicode="c" horiz-adv-x="880" d="M68 504q0 249 123.5 382.5t322.5 133.5q106 0 180.5 -33t151.5 -117l-101 -94q-57 63 -108 88t-123 25q-153 0 -233 -115q-35 -50 -50.5 -112.5t-15.5 -157.5t15.5 -158t50.5 -113q79 -114 233 -114q72 0 123 25.5t108 88.5l101 -96q-77 -83 -151.5 -116t-180.5 -33 q-199 0 -322.5 133.5t-123.5 382.5z" />
<glyph unicode="d" horiz-adv-x="993" d="M70 504q0 305 123 428q41 41 105.5 64.5t139.5 23.5q91 0 159 -28t126 -101v567h147v-1458h-145v121q-58 -75 -127 -104t-160 -29q-75 0 -139.5 23.5t-105.5 64.5q-123 123 -123 428zM217 504q0 -65 5 -116t21.5 -103.5t43.5 -87t73.5 -56.5t110.5 -22t110.5 22t73 56 t42.5 87t21 103.5t5 116.5t-5 116.5t-21 103.5t-42.5 87t-73 56t-110.5 22t-110.5 -22t-73.5 -56.5t-43.5 -87t-21.5 -103.5t-5 -116z" />
<glyph unicode="e" d="M68 504q0 243 110 379.5t303 136.5q194 0 304 -131t110 -357v-67h-680q0 -167 76.5 -257.5t220.5 -90.5q85 0 143.5 26t120.5 88l101 -88q-81 -81 -163.5 -118t-205.5 -37q-207 0 -323.5 128.5t-116.5 387.5zM215 575h533q-3 64 -8.5 96t-22.5 72q-29 69 -93 110.5 t-143 41.5t-142.5 -41.5t-92.5 -110.5q-17 -40 -22.5 -72t-8.5 -96z" />
<glyph unicode="f" horiz-adv-x="520" d="M27 895v113h129v184q0 118 66 194t190 76h106v-127h-80q-135 0 -135 -147v-180h215v-113h-215v-895h-147v895h-129z" />
<glyph unicode="g" horiz-adv-x="989" d="M70 512q0 297 123 420q41 41 105.5 64.5t139.5 23.5q91 0 158 -28t125 -103v119h145v-1039q0 -191 -113 -311.5t-307 -120.5q-111 0 -185.5 30.5t-156.5 104.5l97 95q62 -56 110.5 -78.5t130.5 -22.5q139 0 208 85.5t69 223.5v158q-58 -74 -126 -102.5t-157 -28.5 q-74 0 -138 24.5t-105 65.5q-123 123 -123 420zM217 512q0 -63 5 -112t21 -101t42.5 -86t73.5 -56t110 -22t109.5 22t73 56t42 86t20.5 101t5 112t-5 112t-20.5 101t-42 86t-73 56t-109.5 22t-110 -22t-73.5 -56t-42.5 -86t-21 -101t-5 -112z" />
<glyph unicode="h" horiz-adv-x="1028" d="M123 0v1458h147v-561q108 123 283 123q169 0 265.5 -100.5t96.5 -272.5v-647h-147v623q0 130 -65 198t-181 68t-184 -69t-68 -197v-623h-147z" />
<glyph unicode="i" horiz-adv-x="395" d="M123 0v1008h147v-1008h-147zM123 1305v153h147v-153h-147z" />
<glyph unicode="j" horiz-adv-x="395" d="M-92 -324h80q74 0 104.5 36t30.5 112v1184h147v-1190q0 -122 -64.5 -196.5t-191.5 -74.5h-106v129zM123 1305v153h147v-153h-147z" />
<glyph unicode="k" horiz-adv-x="974" d="M123 0v1458h147v-975l455 525h184l-342 -385l402 -623h-183l-319 516l-197 -225v-291h-147z" />
<glyph unicode="l" horiz-adv-x="423" d="M119 268v1190h147v-1184q0 -76 30.5 -111.5t104.5 -35.5h19v-127h-45q-127 0 -191.5 73.5t-64.5 194.5z" />
<glyph unicode="m" horiz-adv-x="1677" d="M123 0v1008h147v-111q108 123 285 123q217 0 309 -168q118 168 332 168q163 0 260 -94q109 -106 109 -281v-645h-148v621q0 131 -66 199.5t-182 68.5q-113 0 -182 -67t-69 -185v-637h-148v621q0 131 -66 199.5t-182 68.5q-117 0 -184.5 -69.5t-67.5 -198.5v-621h-147z " />
<glyph unicode="n" horiz-adv-x="1028" d="M123 0v1008h147v-111q108 123 283 123q164 0 258 -94q104 -101 104 -281v-645h-147v621q0 131 -66 199.5t-182 68.5t-183 -69t-67 -199v-621h-147z" />
<glyph unicode="o" d="M70 504q0 132 26 230.5t97 170.5q115 115 288 115q174 0 289 -115q71 -72 97 -170.5t26 -230.5q0 -133 -26 -231.5t-97 -170.5q-114 -114 -289 -114q-174 0 -288 114q-71 72 -97 170.5t-26 231.5zM217 504q0 -106 16 -183.5t66 -127.5q74 -74 182 -74q111 0 185 74 q50 50 64.5 126t14.5 185t-14.5 185t-64.5 126q-74 74 -185 74q-108 0 -182 -74q-50 -50 -66 -127.5t-16 -183.5z" />
<glyph unicode="p" horiz-adv-x="993" d="M123 -451v1459h147v-119q58 75 126 103t159 28q75 0 140.5 -24t105.5 -64q123 -123 123 -428t-123 -428q-40 -40 -105.5 -64t-140.5 -24q-90 0 -158.5 28.5t-126.5 102.5v-570h-147zM270 504q0 -65 5 -116t21.5 -103.5t43.5 -87t73.5 -56.5t110.5 -22t110.5 22t73 56 t42.5 87t21 103.5t5 116.5t-5 116.5t-21 103.5t-42.5 87t-73 56t-110.5 22t-110.5 -22t-73.5 -56.5t-43.5 -87t-21.5 -103.5t-5 -116z" />
<glyph unicode="q" horiz-adv-x="993" d="M70 504q0 305 123 428q41 41 105.5 64.5t139.5 23.5q91 0 160 -28t127 -103v119h145v-1459h-147v570q-58 -74 -126.5 -102.5t-158.5 -28.5q-75 0 -139.5 23.5t-105.5 64.5q-123 123 -123 428zM217 504q0 -65 5 -116t21.5 -103.5t43.5 -87t73.5 -56.5t110.5 -22t110.5 22 t73 56t42.5 87t21 103.5t5 116.5t-5 116.5t-21 103.5t-42.5 87t-73 56t-110.5 22t-110.5 -22t-73.5 -56.5t-43.5 -87t-21.5 -103.5t-5 -116z" />
<glyph unicode="r" horiz-adv-x="569" d="M123 0v1008h147v-123q41 62 118 98.5t165 36.5v-131h-41q-109 0 -175.5 -77t-66.5 -194v-618h-147z" />
<glyph unicode="s" horiz-adv-x="892" d="M27 133l98 98q110 -116 313 -116q127 0 198 45t71 133q0 133 -168 147l-166 15q-301 24 -301 270q0 136 103 215.5t267 79.5q230 0 363 -109l-96 -96q-105 80 -269 80q-109 0 -167 -44t-58 -122q0 -66 41.5 -103t134.5 -44l162 -15q143 -13 220 -76t77 -196 q0 -144 -112 -225.5t-298 -81.5q-132 0 -232 34t-181 111z" />
<glyph unicode="t" horiz-adv-x="557" d="M20 895v113h127v309h148v-309h215v-113h-215v-621q0 -147 137 -147h78v-127h-104q-124 0 -191.5 76t-67.5 194v625h-127z" />
<glyph unicode="u" horiz-adv-x="1028" d="M113 365v643h147v-621q0 -131 65 -199.5t181 -68.5q117 0 184.5 69.5t67.5 198.5v621h147v-1008h-145v113q-110 -125 -285 -125q-166 0 -260 94q-102 99 -102 283z" />
<glyph unicode="v" horiz-adv-x="870" d="M0 1008h160l274 -809l277 809h159l-370 -1008h-131z" />
<glyph unicode="w" horiz-adv-x="1437" d="M0 1008h160l231 -809l264 809h127l267 -809l229 809h160l-318 -1008h-137l-264 782l-262 -782h-138z" />
<glyph unicode="x" horiz-adv-x="856" d="M6 0l342 514l-328 494h179l231 -373l227 373h179l-328 -494l342 -514h-178l-242 391l-246 -391h-178z" />
<glyph unicode="y" horiz-adv-x="870" d="M0 1008h160l276 -809l275 809h159l-458 -1252q-28 -77 -72 -118q-73 -70 -197 -70h-63v131h45q74 0 107 26.5t59 98.5l71 196z" />
<glyph unicode="z" horiz-adv-x="817" d="M41 0v127l561 750h-530v131h700v-125l-563 -752h563v-131h-731z" />
<glyph unicode="{" horiz-adv-x="602" d="M37 664v131h53q56 0 92 36q37 37 37 123v392q0 79 14 123.5t48 78.5q62 62 206 62h76v-131h-47q-94 0 -121 -27q-17 -17 -22.5 -46t-5.5 -87v-385q0 -82 -32.5 -128.5t-96.5 -76.5q64 -30 96.5 -76.5t32.5 -128.5v-385q0 -58 5.5 -87t22.5 -46q15 -15 41 -20.5t80 -5.5 h47v-132h-76q-144 0 -206 62q-34 34 -48 79t-14 124v391q0 86 -37 123t-92 37h-53z" />
<glyph unicode="|" horiz-adv-x="544" d="M199 -152v1762h147v-1762h-147z" />
<glyph unicode="}" horiz-adv-x="602" d="M37 -20h49q54 0 79 5.5t40 20.5q31 31 31 133v385q0 82 32.5 128.5t96.5 76.5q-64 30 -96.5 76.5t-32.5 128.5v385q0 102 -31 133q-15 15 -40.5 21t-78.5 6h-49v131h78q145 0 207 -62q34 -34 47.5 -78.5t13.5 -123.5v-392q0 -86 37 -123q36 -36 92 -36h51v-131h-51 q-55 0 -92 -37t-37 -123v-391q0 -79 -13.5 -124t-47.5 -79q-62 -62 -207 -62h-78v132z" />
<glyph unicode="~" horiz-adv-x="980" d="M39 543q84 84 138.5 111.5t125.5 27.5q34 0 73 -10t65.5 -20.5t76.5 -33.5q103 -49 160 -49q45 0 80 18t92 75l92 -93q-84 -84 -138.5 -111.5t-125.5 -27.5q-34 0 -73 10t-67 21t-77 33q-103 49 -160 49q-46 0 -80.5 -17.5t-91.5 -74.5z" />
<glyph unicode="&#xa1;" horiz-adv-x="524" d="M141 836v172h176v-172h-176zM145 -451l21 1049h127l22 -1049h-170z" />
<glyph unicode="&#xa2;" horiz-adv-x="897" d="M68 750q0 218 99.5 351.5t270.5 158.5v198h121v-194q91 -6 158.5 -40.5t138.5 -111.5l-100 -94q-51 57 -97 82t-108 30v-761q62 5 108 30t97 82l100 -94q-70 -76 -138 -110.5t-159 -40.5v-236h-121v240q-171 25 -270.5 158.5t-99.5 351.5zM215 750q0 -176 68 -271 q64 -88 163 -106v753q-99 -18 -163 -106q-68 -95 -68 -270z" />
<glyph unicode="&#xa3;" horiz-adv-x="999" d="M35 676v110h129v230q0 208 127 331t330 123q202 0 333 -131l-106 -104q-48 48 -96.5 72t-130.5 24q-143 0 -221 -87.5t-78 -248.5v-209h299v-110h-299v-537h632v-139h-790v676h-129z" />
<glyph unicode="&#xa4;" horiz-adv-x="1228" d="M98 133l152 152q-90 121 -90 270t90 270l-152 150l95 94l151 -149q118 88 270 88q151 0 269 -88l153 149l94 -94l-151 -150q90 -121 90 -270t-90 -270l151 -152l-94 -94l-153 151q-121 -90 -269 -90q-149 0 -270 90l-151 -151zM295 555q0 -132 93.5 -225.5t225.5 -93.5 t225 93.5t93 225.5t-93 224.5t-225 92.5t-225.5 -92.5t-93.5 -224.5z" />
<glyph unicode="&#xa5;" horiz-adv-x="929" d="M-45 1458h168l344 -698l342 698h166l-322 -637h205v-110h-260l-53 -109v-106h313v-113h-313v-383h-158v383h-315v113h315v106l-53 109h-262v110h204z" />
<glyph unicode="&#xa6;" horiz-adv-x="563" d="M199 -152v717h147v-717h-147zM199 893v717h147v-717h-147z" />
<glyph unicode="&#xa7;" horiz-adv-x="1017" d="M117 516q0 118 61.5 205t153.5 131q-94 42 -142.5 109t-48.5 174q0 149 103.5 242t265.5 93t264.5 -86.5t108.5 -234.5h-148q-14 190 -225 190q-104 0 -162.5 -52t-58.5 -150q0 -148 172 -197l160 -45q133 -38 206.5 -137t73.5 -238q0 -118 -61 -205t-152 -131 q91 -33 145 -109.5t54 -185.5q0 -157 -108 -254.5t-269 -97.5q-160 0 -269 86t-118 244h149q9 -94 71.5 -144.5t166.5 -50.5q105 0 166 56.5t61 158.5q0 72 -47.5 128.5t-132.5 80.5l-160 45q-134 38 -207 136.5t-73 238.5zM266 518q0 -113 68 -188q68 -74 176 -74t176 74 q66 72 66 188q0 123 -66 189q-73 73 -176 73q-109 0 -176 -73q-68 -74 -68 -189z" />
<glyph unicode="&#xa8;" horiz-adv-x="901" d="M160 1233v182h147v-182h-147zM594 1233v182h147v-182h-147z" />
<glyph unicode="&#xa9;" horiz-adv-x="1681" d="M98 729q0 202 99.5 372.5t270 269.5t372.5 99q151 0 288.5 -58.5t236.5 -157.5t157.5 -236.5t58.5 -288.5t-58.5 -288.5t-157.5 -236.5t-236.5 -157.5t-288.5 -58.5q-202 0 -372.5 99t-270 269.5t-99.5 372.5zM219 729q0 -170 83 -315.5t226 -230.5t312 -85 q127 0 242 50.5t198.5 135t132.5 201t49 244.5t-49 244.5t-132.5 201t-198.5 135t-242 50.5q-169 0 -312 -85t-226 -230.5t-83 -315.5zM485 729q0 186 95.5 302t269.5 116q83 0 142.5 -25.5t125.5 -83.5l-74 -73q-51 44 -94 61.5t-100 17.5q-131 0 -190.5 -87t-59.5 -228 t59.5 -227t190.5 -86q58 0 100.5 17t93.5 61l74 -74q-62 -56 -123.5 -81.5t-144.5 -25.5q-174 0 -269.5 115t-95.5 301z" />
<glyph unicode="&#xaa;" horiz-adv-x="796" d="M53 879q0 107 72.5 170t204.5 63h235v74q0 88 -46 130t-152 42q-76 0 -120.5 -19.5t-80.5 -70.5l-84 75q54 69 120.5 96t166.5 27q317 0 317 -270v-543h-119v74q-48 -46 -98.5 -65t-128.5 -19q-82 0 -134 17.5t-91 56.5q-62 65 -62 162zM174 883q0 -68 42 -100.5 t134 -32.5q61 0 102 9.5t74 41.5q39 36 39 137v82h-219q-172 0 -172 -137z" />
<glyph unicode="&#xab;" horiz-adv-x="1011" d="M20 549l431 430v-184l-246 -246l246 -248v-182zM483 549l430 430v-184l-247 -246l247 -248v-182z" />
<glyph unicode="&#xac;" horiz-adv-x="946" d="M43 492v137h860v-418h-137v281h-723z" />
<glyph unicode="&#xad;" horiz-adv-x="749" d="M94 483v138h561v-138h-561z" />
<glyph unicode="&#xae;" horiz-adv-x="1681" d="M98 729q0 202 99.5 372.5t270 269.5t372.5 99q151 0 288.5 -58.5t236.5 -157.5t157.5 -236.5t58.5 -288.5t-58.5 -288.5t-157.5 -236.5t-236.5 -157.5t-288.5 -58.5q-202 0 -372.5 99t-270 269.5t-99.5 372.5zM217 729q0 -171 83.5 -317t227 -231t312.5 -85 q127 0 242.5 50.5t199 135.5t133 202t49.5 245t-49.5 245t-133 202t-199 135.5t-242.5 50.5q-169 0 -312.5 -85t-227 -231t-83.5 -317zM598 324v813h276q106 0 181 -71t75 -173q0 -85 -47.5 -141.5t-126.5 -81.5l195 -346h-131l-186 331h-123v-331h-113zM711 752h151 q67 0 110.5 39.5t43.5 101.5t-43.5 102.5t-110.5 40.5h-151v-284z" />
<glyph unicode="&#xaf;" horiz-adv-x="901" d="M141 1257v117h619v-117h-619z" />
<glyph unicode="&#xb0;" horiz-adv-x="825" d="M76 1141q0 139 99 237.5t239 98.5t238 -98.5t98 -237.5t-98 -237.5t-238 -98.5t-239 98.5t-99 237.5zM201 1141q0 -92 61 -154.5t152 -62.5t151 62t60 155q0 92 -61 154.5t-152 62.5t-151 -62t-60 -155z" />
<glyph unicode="&#xb1;" horiz-adv-x="946" d="M45 0v137h856v-137h-856zM45 592v137h361v358h137v-358h358v-137h-358v-363h-137v363h-361z" />
<glyph unicode="&#xb2;" horiz-adv-x="577" d="M37 584v106l338 414q47 58 47 119q0 62 -35.5 99.5t-97.5 37.5q-58 0 -95.5 -33.5t-37.5 -103.5h-119q0 109 70.5 176t181.5 67q112 0 182 -66t70 -177q0 -54 -18.5 -94.5t-61.5 -94.5l-283 -344h363v-106h-504z" />
<glyph unicode="&#xb3;" horiz-adv-x="606" d="M37 817h119q3 -68 45 -102.5t104 -34.5q65 0 106.5 40t41.5 109q0 70 -39.5 110t-114.5 40h-18v102h18q69 0 104 37.5t35 102.5q0 66 -38.5 102.5t-96.5 36.5q-60 0 -96 -34.5t-41 -94.5h-117q6 108 77.5 171.5t176.5 63.5q111 0 181.5 -67.5t70.5 -175.5 q0 -137 -111 -189q125 -53 125 -205q0 -121 -75 -188.5t-189 -67.5q-72 0 -130 25t-96.5 81.5t-41.5 137.5z" />
<glyph unicode="&#xb4;" horiz-adv-x="901" d="M350 1217l180 313h177l-222 -313h-135z" />
<glyph unicode="&#xb5;" horiz-adv-x="1026" d="M109 -451v1459h147v-621q0 -131 66 -199.5t182 -68.5q117 0 184.5 69.5t67.5 198.5v621h147v-1008h-147v113q-110 -125 -283 -125q-136 0 -217 75v-514h-147z" />
<glyph unicode="&#xb6;" horiz-adv-x="1112" d="M25 1061q0 170 119.5 283.5t324.5 113.5h494v-1909h-148v1770h-240v-1770h-147v1119q-119 0 -212.5 56.5t-142 145.5t-48.5 191z" />
<glyph unicode="&#xb7;" horiz-adv-x="430" d="M119 457v192h192v-192h-192z" />
<glyph unicode="&#xb8;" horiz-adv-x="901" d="M297 -442l145 305h138l-121 -305h-162z" />
<glyph unicode="&#xb9;" horiz-adv-x="411" d="M27 1178v135l170 145h116v-874h-116v743z" />
<glyph unicode="&#xba;" horiz-adv-x="808" d="M76 1055q0 105 20.5 183t77.5 136q92 92 229 92q138 0 230 -92q57 -58 77.5 -136t20.5 -183q0 -106 -20.5 -184t-77.5 -136q-90 -90 -230 -90q-139 0 -229 90q-57 58 -77.5 136t-20.5 184zM199 1055q0 -85 11.5 -144.5t49.5 -97.5q59 -59 143 -59q85 0 144 59 q38 38 50.5 98.5t12.5 143.5t-12.5 144t-50.5 99q-58 58 -144 58q-85 0 -143 -58q-38 -38 -49.5 -98t-11.5 -145z" />
<glyph unicode="&#xbb;" horiz-adv-x="1011" d="M98 119v182l248 248l-248 246v184l430 -430zM561 119v182l246 248l-246 246v184l430 -430z" />
<glyph unicode="&#xbc;" horiz-adv-x="1468" d="M27 1178v135l170 145h116v-874h-116v743zM293 0l682 1458h123l-682 -1458h-123zM885 131v109l309 634h127l-307 -634h223v215h115v-215h96v-109h-96v-131h-115v131h-352z" />
<glyph unicode="&#xbd;" horiz-adv-x="1495" d="M27 1178v135l170 145h116v-874h-116v743zM268 0l682 1458h123l-682 -1458h-123zM954 0v106l338 414q47 58 47 119q0 62 -35.5 99.5t-97.5 37.5q-58 0 -95.5 -33.5t-37.5 -103.5h-119q0 109 70.5 176.5t181.5 67.5q112 0 182 -66.5t70 -177.5q0 -54 -18.5 -94t-61.5 -94 l-280 -345h360v-106h-504z" />
<glyph unicode="&#xbe;" horiz-adv-x="1560" d="M37 817h119q3 -68 45 -102.5t104 -34.5q65 0 106.5 40t41.5 109q0 70 -39.5 110t-114.5 40h-18v102h18q69 0 104 37.5t35 102.5q0 66 -38.5 102.5t-96.5 36.5q-60 0 -96 -34.5t-41 -94.5h-117q6 108 77.5 171.5t176.5 63.5q111 0 181.5 -67.5t70.5 -175.5 q0 -137 -111 -189q125 -53 125 -205q0 -121 -75 -188.5t-189 -67.5q-72 0 -130 25t-96.5 81.5t-41.5 137.5zM399 0l684 1458h123l-684 -1458h-123zM977 131v109l309 634h127l-309 -634h225v215h115v-215h96v-109h-96v-131h-115v131h-352z" />
<glyph unicode="&#xbf;" horiz-adv-x="894" d="M33 -88q0 66 23.5 121.5t70.5 124.5l168 241q37 55 37 119v82h147v-84q0 -57 -15.5 -100.5t-49.5 -91.5l-166 -238q-35 -51 -51.5 -88.5t-16.5 -85.5q0 -103 68 -172.5t170 -69.5q105 0 170 71t65 171h148q0 -158 -109.5 -266.5t-273.5 -108.5q-163 0 -274 106t-111 269z M317 836v172h175v-172h-175z" />
<glyph unicode="&#xc0;" horiz-adv-x="1128" d="M-37 0l537 1458h131l534 -1458h-166l-116 330h-637l-117 -330h-166zM293 465h545l-271 770zM301 1913h176l180 -314h-135z" />
<glyph unicode="&#xc1;" horiz-adv-x="1128" d="M-37 0l537 1458h131l534 -1458h-166l-116 330h-637l-117 -330h-166zM293 465h545l-271 770zM457 1599l180 314h176l-221 -314h-135z" />
<glyph unicode="&#xc2;" horiz-adv-x="1128" d="M-37 0l537 1458h131l534 -1458h-166l-116 330h-637l-117 -330h-166zM231 1599l256 314h140l256 -314h-142l-184 213l-184 -213h-142zM293 465h545l-271 770z" />
<glyph unicode="&#xc3;" horiz-adv-x="1128" d="M-37 0l537 1458h131l534 -1458h-166l-116 330h-637l-117 -330h-166zM227 1726q63 63 107 84t88 21q41 0 71 -11.5t74 -37.5q65 -41 115 -41q28 0 54.5 12.5t66.5 52.5l76 -73q-63 -63 -108 -84t-87 -21q-66 0 -145 47q-73 43 -115 43q-29 0 -54 -11.5t-67 -53.5zM293 465 h545l-271 770z" />
<glyph unicode="&#xc4;" horiz-adv-x="1128" d="M-37 0l537 1458h131l534 -1458h-166l-116 330h-637l-117 -330h-166zM266 1616v182h148v-182h-148zM293 465h545l-271 770zM700 1616v182h148v-182h-148z" />
<glyph unicode="&#xc5;" horiz-adv-x="1128" d="M-37 0l537 1458h131l534 -1458h-166l-116 330h-637l-117 -330h-166zM293 465h545l-271 770zM315 1776q0 100 71 170.5t171 70.5t171 -70t71 -171q0 -100 -71 -172t-171 -72t-171 72t-71 172zM416 1776q0 -59 41.5 -100.5t99.5 -41.5t99.5 41.5t41.5 100.5q0 58 -41 98.5 t-100 40.5t-100 -40.5t-41 -98.5z" />
<glyph unicode="&#xc6;" horiz-adv-x="1765" d="M-45 0l770 1458h989v-139h-749v-518h639v-139h-639v-523h749v-139h-903v346h-506l-180 -346h-170zM373 481h438v838z" />
<glyph unicode="&#xc7;" horiz-adv-x="1181" d="M94 729q0 85 0.5 124.5t3 102t7.5 93.5t14.5 76t24.5 73t36.5 60t50.5 61q151 151 373 151q198 0 334 -115t172 -319h-160q-30 136 -121 215.5t-225 79.5q-73 0 -139 -26.5t-113 -75.5q-66 -68 -84 -163.5t-18 -336.5t18 -336.5t84 -163.5q47 -49 113 -75.5t139 -26.5 q135 0 227.5 80t122.5 215h156q-35 -203 -172 -318.5t-334 -115.5q-222 0 -373 151q-29 29 -50.5 61t-36.5 60t-24.5 73t-14.5 76t-7.5 93.5t-3 102t-0.5 124.5zM414 -442l145 305h137l-121 -305h-161z" />
<glyph unicode="&#xc8;" horiz-adv-x="1105" d="M150 0v1458h905v-139h-750v-514h639v-139h-639v-527h750v-139h-905zM324 1913h176l180 -314h-135z" />
<glyph unicode="&#xc9;" horiz-adv-x="1105" d="M150 0v1458h905v-139h-750v-514h639v-139h-639v-527h750v-139h-905zM479 1599l180 314h177l-222 -314h-135z" />
<glyph unicode="&#xca;" horiz-adv-x="1105" d="M150 0v1458h905v-139h-750v-514h639v-139h-639v-527h750v-139h-905zM254 1599l256 314h139l256 -314h-141l-184 213l-185 -213h-141z" />
<glyph unicode="&#xcb;" horiz-adv-x="1105" d="M150 0v1458h905v-139h-750v-514h639v-139h-639v-527h750v-139h-905zM289 1616v182h147v-182h-147zM723 1616v182h147v-182h-147z" />
<glyph unicode="&#xcc;" horiz-adv-x="454" d="M-49 1913h176l180 -314h-135zM150 0v1458h155v-1458h-155z" />
<glyph unicode="&#xcd;" horiz-adv-x="454" d="M150 0v1458h155v-1458h-155zM150 1599l180 314h176l-221 -314h-135z" />
<glyph unicode="&#xce;" horiz-adv-x="454" d="M-100 1599l256 314h139l256 -314h-141l-185 213l-184 -213h-141zM150 0v1458h155v-1458h-155z" />
<glyph unicode="&#xcf;" horiz-adv-x="454" d="M-59 1616v182h147v-182h-147zM150 0v1458h155v-1458h-155zM375 1616v182h147v-182h-147z" />
<glyph unicode="&#xd0;" horiz-adv-x="1284" d="M18 676v121h160v661h502q276 0 420 -219q61 -94 75.5 -180t14.5 -330q0 -250 -16 -340.5t-74 -173.5q-71 -99 -180 -157t-252 -58h-490v676h-160zM336 137h315q217 0 320 152q43 66 53 139t10 293q0 221 -11.5 303t-61.5 150q-58 78 -132 112.5t-178 34.5h-315v-524h330 v-121h-330v-539z" />
<glyph unicode="&#xd1;" horiz-adv-x="1376" d="M150 0v1458h147l774 -1165v1165h156v-1458h-148l-774 1169v-1169h-155zM358 1726q63 63 107 84t88 21q41 0 71 -11.5t74 -37.5q65 -41 115 -41q28 0 54.5 12.5t66.5 52.5l76 -73q-63 -63 -108 -84t-87 -21q-66 0 -145 47q-73 43 -115 43q-29 0 -54 -11.5t-67 -53.5z" />
<glyph unicode="&#xd2;" horiz-adv-x="1208" d="M94 729q0 85 0.5 124.5t3 102t7.5 93.5t14.5 76t24.5 73t36.5 60t50.5 61q151 151 373 151t373 -151q29 -29 50.5 -61t36.5 -60t24.5 -73t14.5 -76t7.5 -93.5t3 -102t0.5 -124.5t-0.5 -124.5t-3 -102t-7.5 -93.5t-14.5 -76t-24.5 -73t-36.5 -60t-50.5 -61 q-151 -151 -373 -151t-373 151q-29 29 -50.5 61t-36.5 60t-24.5 73t-14.5 76t-7.5 93.5t-3 102t-0.5 124.5zM250 729q0 -240 18 -335t84 -163q47 -49 113.5 -76.5t138.5 -27.5t138.5 27.5t113.5 76.5q66 68 84 163t18 335t-18 335t-84 163q-47 49 -113.5 76.5t-138.5 27.5 t-138.5 -27.5t-113.5 -76.5q-66 -68 -84 -163t-18 -335zM348 1913h176l181 -314h-136z" />
<glyph unicode="&#xd3;" horiz-adv-x="1208" d="M94 729q0 85 0.5 124.5t3 102t7.5 93.5t14.5 76t24.5 73t36.5 60t50.5 61q151 151 373 151t373 -151q29 -29 50.5 -61t36.5 -60t24.5 -73t14.5 -76t7.5 -93.5t3 -102t0.5 -124.5t-0.5 -124.5t-3 -102t-7.5 -93.5t-14.5 -76t-24.5 -73t-36.5 -60t-50.5 -61 q-151 -151 -373 -151t-373 151q-29 29 -50.5 61t-36.5 60t-24.5 73t-14.5 76t-7.5 93.5t-3 102t-0.5 124.5zM250 729q0 -240 18 -335t84 -163q47 -49 113.5 -76.5t138.5 -27.5t138.5 27.5t113.5 76.5q66 68 84 163t18 335t-18 335t-84 163q-47 49 -113.5 76.5t-138.5 27.5 t-138.5 -27.5t-113.5 -76.5q-66 -68 -84 -163t-18 -335zM504 1599l180 314h176l-221 -314h-135z" />
<glyph unicode="&#xd4;" horiz-adv-x="1208" d="M94 729q0 85 0.5 124.5t3 102t7.5 93.5t14.5 76t24.5 73t36.5 60t50.5 61q151 151 373 151t373 -151q29 -29 50.5 -61t36.5 -60t24.5 -73t14.5 -76t7.5 -93.5t3 -102t0.5 -124.5t-0.5 -124.5t-3 -102t-7.5 -93.5t-14.5 -76t-24.5 -73t-36.5 -60t-50.5 -61 q-151 -151 -373 -151t-373 151q-29 29 -50.5 61t-36.5 60t-24.5 73t-14.5 76t-7.5 93.5t-3 102t-0.5 124.5zM250 729q0 -240 18 -335t84 -163q47 -49 113.5 -76.5t138.5 -27.5t138.5 27.5t113.5 76.5q66 68 84 163t18 335t-18 335t-84 163q-47 49 -113.5 76.5t-138.5 27.5 t-138.5 -27.5t-113.5 -76.5q-66 -68 -84 -163t-18 -335zM279 1599l256 314h139l256 -314h-142l-184 213l-184 -213h-141z" />
<glyph unicode="&#xd5;" horiz-adv-x="1208" d="M94 729q0 85 0.5 124.5t3 102t7.5 93.5t14.5 76t24.5 73t36.5 60t50.5 61q151 151 373 151t373 -151q29 -29 50.5 -61t36.5 -60t24.5 -73t14.5 -76t7.5 -93.5t3 -102t0.5 -124.5t-0.5 -124.5t-3 -102t-7.5 -93.5t-14.5 -76t-24.5 -73t-36.5 -60t-50.5 -61 q-151 -151 -373 -151t-373 151q-29 29 -50.5 61t-36.5 60t-24.5 73t-14.5 76t-7.5 93.5t-3 102t-0.5 124.5zM250 729q0 -240 18 -335t84 -163q47 -49 113.5 -76.5t138.5 -27.5t138.5 27.5t113.5 76.5q66 68 84 163t18 335t-18 335t-84 163q-47 49 -113.5 76.5t-138.5 27.5 t-138.5 -27.5t-113.5 -76.5q-66 -68 -84 -163t-18 -335zM274 1726q63 63 107 84t88 21q41 0 71 -11.5t74 -37.5q65 -41 115 -41q28 0 54.5 12.5t66.5 52.5l76 -73q-63 -63 -108 -84t-87 -21q-66 0 -145 47q-73 43 -115 43q-29 0 -54 -11.5t-67 -53.5z" />
<glyph unicode="&#xd6;" horiz-adv-x="1208" d="M94 729q0 85 0.5 124.5t3 102t7.5 93.5t14.5 76t24.5 73t36.5 60t50.5 61q151 151 373 151t373 -151q29 -29 50.5 -61t36.5 -60t24.5 -73t14.5 -76t7.5 -93.5t3 -102t0.5 -124.5t-0.5 -124.5t-3 -102t-7.5 -93.5t-14.5 -76t-24.5 -73t-36.5 -60t-50.5 -61 q-151 -151 -373 -151t-373 151q-29 29 -50.5 61t-36.5 60t-24.5 73t-14.5 76t-7.5 93.5t-3 102t-0.5 124.5zM250 729q0 -240 18 -335t84 -163q47 -49 113.5 -76.5t138.5 -27.5t138.5 27.5t113.5 76.5q66 68 84 163t18 335t-18 335t-84 163q-47 49 -113.5 76.5t-138.5 27.5 t-138.5 -27.5t-113.5 -76.5q-66 -68 -84 -163t-18 -335zM313 1616v182h148v-182h-148zM748 1616v182h147v-182h-147z" />
<glyph unicode="&#xd7;" horiz-adv-x="946" d="M72 244l309 309l-309 309l92 92l309 -311l309 311l92 -92l-311 -309l311 -309l-92 -92l-309 309l-309 -309z" />
<glyph unicode="&#xd8;" horiz-adv-x="1212" d="M94 729q0 85 0.5 124.5t3 102t7.5 93.5t14.5 76t24.5 73t36.5 60t50.5 61q151 151 373 151q145 0 256 -63l70 141h133l-102 -213q3 -2 5.5 -4.5t5.5 -6t5 -5.5q29 -29 50.5 -61t36.5 -60t24.5 -73t14.5 -76t7.5 -93.5t3 -102t0.5 -124.5t-0.5 -124.5t-3 -102t-7.5 -93.5 t-14.5 -76t-24.5 -73t-36.5 -60t-50.5 -61q-151 -151 -373 -151q-143 0 -258 65l-67 -143h-134l103 213l-17 16q-29 29 -50.5 61t-36.5 60t-24.5 73t-14.5 76t-7.5 93.5t-3 102t-0.5 124.5zM250 729q0 -211 13.5 -305t58.5 -156l479 1004q-91 59 -197 59q-72 0 -138.5 -27.5 t-113.5 -76.5q-66 -68 -84 -163t-18 -335zM408 186q91 -59 196 -59q72 0 138.5 27.5t113.5 76.5q66 67 83 161.5t17 336.5q0 215 -12 307.5t-57 153.5z" />
<glyph unicode="&#xd9;" horiz-adv-x="1275" d="M129 481v977h156v-964q0 -166 96 -266.5t256 -100.5t257 100.5t97 266.5v964h156v-977q0 -217 -144 -355t-366 -138t-365 138t-143 355zM381 1913h176l180 -314h-135z" />
<glyph unicode="&#xda;" horiz-adv-x="1275" d="M129 481v977h156v-964q0 -166 96 -266.5t256 -100.5t257 100.5t97 266.5v964h156v-977q0 -217 -144 -355t-366 -138t-365 138t-143 355zM537 1599l180 314h176l-221 -314h-135z" />
<glyph unicode="&#xdb;" horiz-adv-x="1275" d="M129 481v977h156v-964q0 -166 96 -266.5t256 -100.5t257 100.5t97 266.5v964h156v-977q0 -217 -144 -355t-366 -138t-365 138t-143 355zM311 1599l256 314h140l256 -314h-142l-184 213l-184 -213h-142z" />
<glyph unicode="&#xdc;" horiz-adv-x="1275" d="M129 481v977h156v-964q0 -166 96 -266.5t256 -100.5t257 100.5t97 266.5v964h156v-977q0 -217 -144 -355t-366 -138t-365 138t-143 355zM346 1616v182h148v-182h-148zM780 1616v182h148v-182h-148z" />
<glyph unicode="&#xdd;" horiz-adv-x="929" d="M-45 1458h168l344 -698l340 698h168l-430 -856v-602h-156v602zM365 1599l180 314h176l-221 -314h-135z" />
<glyph unicode="&#xde;" horiz-adv-x="1191" d="M150 0v1458h155v-293h387q201 0 326 -117.5t125 -312.5t-125 -311.5t-326 -116.5h-387v-307h-155zM305 446h373q141 0 225 74t84 215t-84 215t-225 74h-373v-578z" />
<glyph unicode="&#xdf;" horiz-adv-x="1015" d="M123 0v1073q0 190 110.5 295t301.5 105q83 0 153.5 -20.5t125 -60.5t85.5 -106.5t31 -152.5q0 -161 -129 -244q73 -40 101 -93.5t28 -152.5v-354q0 -141 -80 -215t-211 -74h-111v127h82q43 0 68.5 9t52.5 32q51 42 51 137v346q0 84 -43 127t-121 43h-90v123h74 q80 0 130 50.5t50 135.5q0 94 -63 154q-62 59 -193 59t-192.5 -73t-61.5 -203v-1067h-149z" />
<glyph unicode="&#xe0;" horiz-adv-x="954" d="M43 285q0 134 91 212t257 78h303v97q0 112 -61 166.5t-197 54.5q-96 0 -153 -26t-101 -89l-100 92q65 85 146.5 117.5t209.5 32.5q201 0 302.5 -85.5t101.5 -250.5v-684h-148v96q-61 -61 -125 -84.5t-166 -23.5q-105 0 -171 21.5t-113 70.5q-76 76 -76 205zM186 287 q0 -88 56 -130t176 -42q77 0 129.5 12.5t95.5 54.5q51 48 51 174v109h-282q-226 0 -226 -178zM199 1530h176l180 -313h-135z" />
<glyph unicode="&#xe1;" horiz-adv-x="954" d="M43 285q0 134 91 212t257 78h303v97q0 112 -61 166.5t-197 54.5q-96 0 -153 -26t-101 -89l-100 92q65 85 146.5 117.5t209.5 32.5q201 0 302.5 -85.5t101.5 -250.5v-684h-148v96q-61 -61 -125 -84.5t-166 -23.5q-105 0 -171 21.5t-113 70.5q-76 76 -76 205zM186 287 q0 -88 56 -130t176 -42q77 0 129.5 12.5t95.5 54.5q51 48 51 174v109h-282q-226 0 -226 -178zM354 1217l181 313h176l-222 -313h-135z" />
<glyph unicode="&#xe2;" horiz-adv-x="954" d="M43 285q0 134 91 212t257 78h303v97q0 112 -61 166.5t-197 54.5q-96 0 -153 -26t-101 -89l-100 92q65 85 146.5 117.5t209.5 32.5q201 0 302.5 -85.5t101.5 -250.5v-684h-148v96q-61 -61 -125 -84.5t-166 -23.5q-105 0 -171 21.5t-113 70.5q-76 76 -76 205zM129 1217 l256 313h139l256 -313h-141l-184 213l-185 -213h-141zM186 287q0 -88 56 -130t176 -42q77 0 129.5 12.5t95.5 54.5q51 48 51 174v109h-282q-226 0 -226 -178z" />
<glyph unicode="&#xe3;" horiz-adv-x="954" d="M43 285q0 134 91 212t257 78h303v97q0 112 -61 166.5t-197 54.5q-96 0 -153 -26t-101 -89l-100 92q65 85 146.5 117.5t209.5 32.5q201 0 302.5 -85.5t101.5 -250.5v-684h-148v96q-61 -61 -125 -84.5t-166 -23.5q-105 0 -171 21.5t-113 70.5q-76 76 -76 205zM125 1343 q63 63 106.5 84t87.5 21q41 0 72 -11.5t74 -37.5q65 -41 115 -41q28 0 54 12.5t66 52.5l76 -73q-63 -63 -107.5 -84t-86.5 -21q-67 0 -146 47q-73 43 -114 43q-29 0 -54 -11.5t-67 -53.5zM186 287q0 -88 56 -130t176 -42q77 0 129.5 12.5t95.5 54.5q51 48 51 174v109h-282 q-226 0 -226 -178z" />
<glyph unicode="&#xe4;" horiz-adv-x="954" d="M43 285q0 134 91 212t257 78h303v97q0 112 -61 166.5t-197 54.5q-96 0 -153 -26t-101 -89l-100 92q65 85 146.5 117.5t209.5 32.5q201 0 302.5 -85.5t101.5 -250.5v-684h-148v96q-61 -61 -125 -84.5t-166 -23.5q-105 0 -171 21.5t-113 70.5q-76 76 -76 205zM164 1233v182 h147v-182h-147zM186 287q0 -88 56 -130t176 -42q77 0 129.5 12.5t95.5 54.5q51 48 51 174v109h-282q-226 0 -226 -178zM598 1233v182h147v-182h-147z" />
<glyph unicode="&#xe5;" horiz-adv-x="954" d="M43 285q0 134 91 212t257 78h303v97q0 112 -61 166.5t-197 54.5q-96 0 -153 -26t-101 -89l-100 92q65 85 146.5 117.5t209.5 32.5q201 0 302.5 -85.5t101.5 -250.5v-684h-148v96q-61 -61 -125 -84.5t-166 -23.5q-105 0 -171 21.5t-113 70.5q-76 76 -76 205zM186 287 q0 -88 56 -130t176 -42q77 0 129.5 12.5t95.5 54.5q51 48 51 174v109h-282q-226 0 -226 -178zM213 1407q0 100 71 171t171 71t170.5 -70.5t70.5 -171.5q0 -100 -71 -172t-170 -72q-100 0 -171 72t-71 172zM313 1407q0 -58 41.5 -99.5t100.5 -41.5t100 41t41 100 q0 58 -41 98.5t-100 40.5t-100.5 -40.5t-41.5 -98.5z" />
<glyph unicode="&#xe6;" horiz-adv-x="1587" d="M43 285q0 134 91 212t257 78h303v97q0 112 -61 166.5t-197 54.5q-96 0 -153 -26t-101 -89l-100 92q65 85 146.5 117.5t209.5 32.5q271 0 355 -158q108 158 315 158q194 0 304 -131t110 -357v-67h-682q0 -166 77.5 -257t221.5 -91q85 0 142.5 26t119.5 88l102 -88 q-81 -81 -165 -118t-208 -37q-250 0 -358 174q-68 -97 -152 -135.5t-217 -38.5q-105 0 -171 21.5t-113 70.5q-76 76 -76 205zM186 287q0 -88 56 -130t176 -42q77 0 129.5 12.5t95.5 54.5q51 48 51 174v109h-282q-226 0 -226 -178zM840 575h534q-3 64 -8.5 96t-22.5 72 q-29 69 -92.5 110.5t-142.5 41.5t-143 -41.5t-93 -110.5q-17 -40 -23 -72.5t-9 -95.5z" />
<glyph unicode="&#xe7;" horiz-adv-x="880" d="M68 504q0 249 123.5 382.5t322.5 133.5q106 0 180.5 -33t151.5 -117l-101 -94q-57 63 -108 88t-123 25q-153 0 -233 -115q-35 -50 -50.5 -112.5t-15.5 -157.5t15.5 -158t50.5 -113q79 -114 233 -114q72 0 123 25.5t108 88.5l101 -96q-77 -83 -151.5 -116t-180.5 -33 q-199 0 -322.5 133.5t-123.5 382.5zM297 -442l145 305h138l-121 -305h-162z" />
<glyph unicode="&#xe8;" d="M68 504q0 243 110 379.5t303 136.5q194 0 304 -131t110 -357v-67h-680q0 -167 76.5 -257.5t220.5 -90.5q85 0 143.5 26t120.5 88l101 -88q-81 -81 -163.5 -118t-205.5 -37q-207 0 -323.5 128.5t-116.5 387.5zM215 575h533q-3 64 -8.5 96t-22.5 72q-29 69 -93 110.5 t-143 41.5t-142.5 -41.5t-92.5 -110.5q-17 -40 -22.5 -72t-8.5 -96zM231 1530h177l180 -313h-135z" />
<glyph unicode="&#xe9;" d="M68 504q0 243 110 379.5t303 136.5q194 0 304 -131t110 -357v-67h-680q0 -167 76.5 -257.5t220.5 -90.5q85 0 143.5 26t120.5 88l101 -88q-81 -81 -163.5 -118t-205.5 -37q-207 0 -323.5 128.5t-116.5 387.5zM215 575h533q-3 64 -8.5 96t-22.5 72q-29 69 -93 110.5 t-143 41.5t-142.5 -41.5t-92.5 -110.5q-17 -40 -22.5 -72t-8.5 -96zM387 1217l180 313h176l-221 -313h-135z" />
<glyph unicode="&#xea;" d="M68 504q0 243 110 379.5t303 136.5q194 0 304 -131t110 -357v-67h-680q0 -167 76.5 -257.5t220.5 -90.5q85 0 143.5 26t120.5 88l101 -88q-81 -81 -163.5 -118t-205.5 -37q-207 0 -323.5 128.5t-116.5 387.5zM162 1217l256 313h139l256 -313h-141l-185 213l-184 -213 h-141zM215 575h533q-3 64 -8.5 96t-22.5 72q-29 69 -93 110.5t-143 41.5t-142.5 -41.5t-92.5 -110.5q-17 -40 -22.5 -72t-8.5 -96z" />
<glyph unicode="&#xeb;" d="M68 504q0 243 110 379.5t303 136.5q194 0 304 -131t110 -357v-67h-680q0 -167 76.5 -257.5t220.5 -90.5q85 0 143.5 26t120.5 88l101 -88q-81 -81 -163.5 -118t-205.5 -37q-207 0 -323.5 128.5t-116.5 387.5zM197 1233v182h147v-182h-147zM215 575h533q-3 64 -8.5 96 t-22.5 72q-29 69 -93 110.5t-143 41.5t-142.5 -41.5t-92.5 -110.5q-17 -40 -22.5 -72t-8.5 -96zM631 1233v182h147v-182h-147z" />
<glyph unicode="&#xec;" horiz-adv-x="395" d="M-72 1530h176l181 -313h-135zM123 0v1008h147v-1008h-147z" />
<glyph unicode="&#xed;" horiz-adv-x="395" d="M123 0v1008h147v-1008h-147zM123 1217l180 313h176l-221 -313h-135z" />
<glyph unicode="&#xee;" horiz-adv-x="395" d="M-123 1217l256 313h139l256 -313h-141l-184 213l-185 -213h-141zM123 0v1008h147v-1008h-147z" />
<glyph unicode="&#xef;" horiz-adv-x="395" d="M-94 1233v182h147v-182h-147zM123 0v1008h147v-1008h-147zM340 1233v182h147v-182h-147z" />
<glyph unicode="&#xf0;" d="M74 500q0 133 25.5 231t95.5 168q95 98 249 107q98 4 154 -21l-119 203h-237v106h180l-96 168h153l96 -168h168v-106h-110l129 -227q79 -138 104 -230.5t25 -230.5q0 -132 -26 -230.5t-97 -169.5q-109 -112 -287 -112q-177 0 -286 112q-70 70 -95.5 168.5t-25.5 231.5z M221 500q0 -107 15 -182t65 -125q74 -74 180 -74q109 0 183 74q50 50 64.5 124.5t14.5 182.5q0 109 -14.5 184t-64.5 125q-74 74 -183 74q-106 0 -180 -74q-50 -50 -65 -125.5t-15 -183.5z" />
<glyph unicode="&#xf1;" horiz-adv-x="1028" d="M123 0v1008h147v-111q108 123 283 123q164 0 258 -94q104 -101 104 -281v-645h-147v621q0 131 -66 199.5t-182 68.5t-183 -69t-67 -199v-621h-147zM193 1343q63 63 106.5 84t87.5 21q41 0 71 -11.5t74 -37.5q65 -41 115 -41q28 0 54.5 12.5t66.5 52.5l76 -73 q-63 -63 -108 -84t-87 -21q-66 0 -145 47q-73 43 -115 43q-29 0 -54 -11.5t-67 -53.5z" />
<glyph unicode="&#xf2;" d="M70 504q0 132 26 230.5t97 170.5q115 115 288 115q174 0 289 -115q71 -72 97 -170.5t26 -230.5q0 -133 -26 -231.5t-97 -170.5q-114 -114 -289 -114q-174 0 -288 114q-71 72 -97 170.5t-26 231.5zM205 1530h176l180 -313h-135zM217 504q0 -106 16 -183.5t66 -127.5 q74 -74 182 -74q111 0 185 74q50 50 64.5 126t14.5 185t-14.5 185t-64.5 126q-74 74 -185 74q-108 0 -182 -74q-50 -50 -66 -127.5t-16 -183.5z" />
<glyph unicode="&#xf3;" d="M70 504q0 132 26 230.5t97 170.5q115 115 288 115q174 0 289 -115q71 -72 97 -170.5t26 -230.5q0 -133 -26 -231.5t-97 -170.5q-114 -114 -289 -114q-174 0 -288 114q-71 72 -97 170.5t-26 231.5zM217 504q0 -106 16 -183.5t66 -127.5q74 -74 182 -74q111 0 185 74 q50 50 64.5 126t14.5 185t-14.5 185t-64.5 126q-74 74 -185 74q-108 0 -182 -74q-50 -50 -66 -127.5t-16 -183.5zM381 1217l180 313h176l-221 -313h-135z" />
<glyph unicode="&#xf4;" d="M70 504q0 132 26 230.5t97 170.5q115 115 288 115q174 0 289 -115q71 -72 97 -170.5t26 -230.5q0 -133 -26 -231.5t-97 -170.5q-114 -114 -289 -114q-174 0 -288 114q-71 72 -97 170.5t-26 231.5zM156 1217l256 313h139l256 -313h-141l-185 213l-184 -213h-141zM217 504 q0 -106 16 -183.5t66 -127.5q74 -74 182 -74q111 0 185 74q50 50 64.5 126t14.5 185t-14.5 185t-64.5 126q-74 74 -185 74q-108 0 -182 -74q-50 -50 -66 -127.5t-16 -183.5z" />
<glyph unicode="&#xf5;" d="M70 504q0 132 26 230.5t97 170.5q115 115 288 115q174 0 289 -115q71 -72 97 -170.5t26 -230.5q0 -133 -26 -231.5t-97 -170.5q-114 -114 -289 -114q-174 0 -288 114q-71 72 -97 170.5t-26 231.5zM152 1343q63 63 106.5 84t87.5 21q41 0 72 -11.5t74 -37.5 q65 -41 114 -41q28 0 54.5 12.5t66.5 52.5l76 -73q-63 -63 -108 -84t-87 -21q-66 0 -145 47q-73 43 -115 43q-29 0 -54 -11.5t-67 -53.5zM217 504q0 -106 16 -183.5t66 -127.5q74 -74 182 -74q111 0 185 74q50 50 64.5 126t14.5 185t-14.5 185t-64.5 126q-74 74 -185 74 q-108 0 -182 -74q-50 -50 -66 -127.5t-16 -183.5z" />
<glyph unicode="&#xf6;" d="M70 504q0 132 26 230.5t97 170.5q115 115 288 115q174 0 289 -115q71 -72 97 -170.5t26 -230.5q0 -133 -26 -231.5t-97 -170.5q-114 -114 -289 -114q-174 0 -288 114q-71 72 -97 170.5t-26 231.5zM190 1233v182h148v-182h-148zM217 504q0 -106 16 -183.5t66 -127.5 q74 -74 182 -74q111 0 185 74q50 50 64.5 126t14.5 185t-14.5 185t-64.5 126q-74 74 -185 74q-108 0 -182 -74q-50 -50 -66 -127.5t-16 -183.5zM625 1233v182h147v-182h-147z" />
<glyph unicode="&#xf7;" horiz-adv-x="946" d="M43 483v138h860v-138h-860zM385 100v176h176v-176h-176zM385 827v177h176v-177h-176z" />
<glyph unicode="&#xf8;" d="M70 504q0 132 26 230.5t97 170.5q115 115 288 115q122 0 215 -55l80 133h115l-117 -197q68 -71 93.5 -168.5t25.5 -228.5q0 -133 -26 -231.5t-97 -170.5q-114 -114 -289 -114q-122 0 -215 55l-78 -133h-116l116 196q-68 71 -93 169t-25 229zM217 504q0 -189 51 -273 l361 615q-61 43 -148 43q-108 0 -182 -74q-50 -50 -66 -127.5t-16 -183.5zM334 164q64 -45 147 -45q111 0 185 74q50 50 64.5 126t14.5 185q0 90 -9.5 156t-39.5 116z" />
<glyph unicode="&#xf9;" horiz-adv-x="1028" d="M113 365v643h147v-621q0 -131 65 -199.5t181 -68.5q117 0 184.5 69.5t67.5 198.5v621h147v-1008h-145v113q-110 -125 -285 -125q-166 0 -260 94q-102 99 -102 283zM252 1530h176l180 -313h-135z" />
<glyph unicode="&#xfa;" horiz-adv-x="1028" d="M113 365v643h147v-621q0 -131 65 -199.5t181 -68.5q117 0 184.5 69.5t67.5 198.5v621h147v-1008h-145v113q-110 -125 -285 -125q-166 0 -260 94q-102 99 -102 283zM408 1217l180 313h176l-221 -313h-135z" />
<glyph unicode="&#xfb;" horiz-adv-x="1028" d="M113 365v643h147v-621q0 -131 65 -199.5t181 -68.5q117 0 184.5 69.5t67.5 198.5v621h147v-1008h-145v113q-110 -125 -285 -125q-166 0 -260 94q-102 99 -102 283zM182 1217l256 313h140l256 -313h-142l-184 213l-184 -213h-142z" />
<glyph unicode="&#xfc;" horiz-adv-x="1028" d="M113 365v643h147v-621q0 -131 65 -199.5t181 -68.5q117 0 184.5 69.5t67.5 198.5v621h147v-1008h-145v113q-110 -125 -285 -125q-166 0 -260 94q-102 99 -102 283zM217 1233v182h148v-182h-148zM651 1233v182h148v-182h-148z" />
<glyph unicode="&#xfd;" horiz-adv-x="792" d="M-39 1008h160l276 -809l275 809h159l-458 -1252q-28 -77 -72 -118q-73 -70 -197 -70h-63v131h45q74 0 107 26.5t59 98.5l72 196zM295 1217l180 313h176l-221 -313h-135z" />
<glyph unicode="&#xfe;" horiz-adv-x="995" d="M123 -451v1909h147v-567q58 73 126 101t159 28q75 0 140.5 -24t105.5 -64q123 -123 123 -428t-123 -428q-40 -40 -105.5 -64t-140.5 -24q-90 0 -158.5 28.5t-126.5 102.5v-570h-147zM270 504q0 -65 5 -116t21.5 -103.5t43.5 -87t73.5 -56.5t110.5 -22t110.5 22t73 56 t42.5 87t21 103.5t5 116.5t-5 116.5t-21 103.5t-42.5 87t-73 56t-110.5 22t-110.5 -22t-73.5 -56.5t-43.5 -87t-21.5 -103.5t-5 -116z" />
<glyph unicode="&#xff;" horiz-adv-x="792" d="M-39 1008h160l276 -809l275 809h159l-458 -1252q-28 -77 -72 -118q-73 -70 -197 -70h-63v131h45q74 0 107 26.5t59 98.5l72 196zM104 1233v182h148v-182h-148zM539 1233v182h147v-182h-147z" />
<glyph unicode="&#x152;" horiz-adv-x="1902" d="M94 729q0 95 1 143.5t4.5 115t12 103.5t24 82t38.5 78.5t57 67.5q151 151 371 151q222 0 354 -163v151h889v-137h-733q0 -80 1 -260.5t1 -259.5h623v-131h-623q0 -81 -1 -266.5t-1 -266.5h737v-137h-893v152q-66 -81 -158.5 -122.5t-195.5 -41.5q-220 0 -371 151 q-34 34 -57 67.5t-38.5 78.5t-24 82t-12 103.5t-4.5 115t-1 143.5zM250 729q0 -240 18 -335t84 -163q47 -49 113.5 -76.5t138.5 -27.5t138.5 27.5t113.5 76.5q66 67 83 161.5t17 336.5t-17 336.5t-83 161.5q-47 49 -113.5 76.5t-138.5 27.5t-138.5 -27.5t-113.5 -76.5 q-66 -68 -84 -163t-18 -335z" />
<glyph unicode="&#x153;" horiz-adv-x="1640" d="M70 504q0 132 26 230.5t97 170.5q115 115 288 115q114 0 205.5 -51.5t138.5 -143.5q104 195 334 195q194 0 304 -131t110 -357v-67h-680q0 -167 76.5 -257.5t220.5 -90.5q85 0 143.5 26t120.5 88l100 -88q-81 -81 -163 -118t-205 -37q-255 0 -363 194 q-47 -92 -137.5 -143t-204.5 -51q-174 0 -288 114q-71 72 -97 170.5t-26 231.5zM217 504q0 -106 16 -183.5t66 -127.5q74 -74 182 -74q111 0 185 74q50 50 64.5 126t14.5 185t-14.5 185t-64.5 126q-74 74 -185 74q-108 0 -182 -74q-50 -50 -66 -127.5t-16 -183.5zM893 575 h534q-3 63 -9 95.5t-23 72.5q-29 69 -93 110.5t-143 41.5t-142.5 -41.5t-92.5 -110.5q-17 -40 -22.5 -72t-8.5 -96z" />
<glyph unicode="&#x178;" horiz-adv-x="929" d="M-45 1458h168l344 -698l340 698h168l-430 -856v-602h-156v602zM174 1616v182h148v-182h-148zM608 1616v182h148v-182h-148z" />
<glyph unicode="&#x2c6;" horiz-adv-x="901" d="M125 1217l256 313h139l256 -313h-141l-184 213l-185 -213h-141z" />
<glyph unicode="&#x2dc;" horiz-adv-x="901" d="M121 1343q63 63 106.5 84t87.5 21q41 0 72 -11.5t74 -37.5q65 -41 114 -41q28 0 54.5 12.5t66.5 52.5l76 -73q-63 -63 -107.5 -84t-86.5 -21q-67 0 -146 47q-73 43 -115 43q-29 0 -53.5 -11.5t-66.5 -53.5z" />
<glyph unicode="&#x2000;" horiz-adv-x="1008" />
<glyph unicode="&#x2001;" horiz-adv-x="2017" />
<glyph unicode="&#x2002;" horiz-adv-x="1008" />
<glyph unicode="&#x2003;" horiz-adv-x="2017" />
<glyph unicode="&#x2004;" horiz-adv-x="672" />
<glyph unicode="&#x2005;" horiz-adv-x="504" />
<glyph unicode="&#x2006;" horiz-adv-x="336" />
<glyph unicode="&#x2007;" horiz-adv-x="336" />
<glyph unicode="&#x2008;" horiz-adv-x="252" />
<glyph unicode="&#x2009;" horiz-adv-x="403" />
<glyph unicode="&#x200a;" horiz-adv-x="112" />
<glyph unicode="&#x2010;" horiz-adv-x="749" d="M94 483v138h561v-138h-561z" />
<glyph unicode="&#x2011;" horiz-adv-x="749" d="M94 483v138h561v-138h-561z" />
<glyph unicode="&#x2012;" horiz-adv-x="749" d="M94 483v138h561v-138h-561z" />
<glyph unicode="&#x2013;" horiz-adv-x="946" d="M45 483v138h856v-138h-856z" />
<glyph unicode="&#x2014;" horiz-adv-x="1748" d="M94 483v140h1561v-140h-1561z" />
<glyph unicode="&#x2018;" horiz-adv-x="415" d="M119 1286v172h178v-334z" />
<glyph unicode="&#x2019;" horiz-adv-x="415" d="M119 1124v334h178v-172z" />
<glyph unicode="&#x201a;" horiz-adv-x="415" d="M119 -162v334h178v-172z" />
<glyph unicode="&#x201c;" horiz-adv-x="765" d="M119 1286v172h180v-334zM469 1286v172h178v-334z" />
<glyph unicode="&#x201d;" horiz-adv-x="765" d="M119 1124v334h178v-172zM467 1124v334h180v-172z" />
<glyph unicode="&#x201e;" horiz-adv-x="765" d="M119 -162v334h178v-172zM467 -162v334h180v-172z" />
<glyph unicode="&#x2022;" horiz-adv-x="966" d="M150 684q0 138 97.5 236t235.5 98t236 -98t98 -236t-98 -236t-236 -98t-235.5 98t-97.5 236z" />
<glyph unicode="&#x2026;" horiz-adv-x="1427" d="M119 0v188h188v-188h-188zM618 0v188h189v-188h-189zM1120 0v188h189v-188h-189z" />
<glyph unicode="&#x202f;" horiz-adv-x="403" />
<glyph unicode="&#x2039;" horiz-adv-x="548" d="M20 549l431 430v-184l-246 -246l246 -248v-182z" />
<glyph unicode="&#x203a;" horiz-adv-x="548" d="M98 119v182l248 248l-248 246v184l430 -430z" />
<glyph unicode="&#x205f;" horiz-adv-x="504" />
<glyph unicode="&#x20ac;" horiz-adv-x="1265" d="M35 532v103h135v201h-135v100h137q6 137 34.5 224t100.5 159q151 151 371 151q198 0 334 -115t172 -319h-158q-30 136 -121.5 215.5t-226.5 79.5q-150 0 -252 -102q-50 -51 -70 -114.5t-26 -178.5h448v-100h-452v-201h452v-103h-448q5 -121 25 -186.5t71 -116.5 q102 -102 252 -102q135 0 228.5 80t123.5 215h154q-36 -204 -172.5 -319t-333.5 -115q-220 0 -371 151q-73 73 -101 161.5t-34 231.5h-137z" />
<glyph unicode="&#x2122;" horiz-adv-x="1595" d="M12 1350v108h604v-108h-243v-766h-119v766h-242zM770 584v874h119l266 -530l266 530h117v-874h-117v630l-209 -413h-114l-209 413v-630h-119z" />
<glyph unicode="&#x25fc;" horiz-adv-x="1003" d="M0 0v1004h1004v-1004h-1004z" />
<glyph unicode="&#xfb01;" horiz-adv-x="915" d="M25 895v113h129v180q0 118 66 194t190 76h106v-127h-80q-135 0 -135 -147v-176h215v-113h-215v-895h-147v895h-129zM643 0v1008h148v-1008h-148zM643 1305v153h148v-153h-148z" />
<glyph unicode="&#xfb02;" horiz-adv-x="944" d="M25 897v113h129v178q0 118 66 194t190 76h106v-127h-80q-135 0 -135 -147v-174h215v-113h-215v-897h-147v897h-129zM637 268v1190h147v-1184q0 -76 31 -111.5t105 -35.5h20v-127h-45q-127 0 -192.5 73.5t-65.5 194.5z" />
</font>
</defs>
</svg>
